<?xml version="1.0" encoding="utf-8"?>
<!-- Generator: Adobe Illustrator 22.1.0, SVG Export Plug-In . SVG Version: 6.00 Build 0)  -->
<svg version="1.1" xmlns="http://www.w3.org/2000/svg" xmlns:xlink="http://www.w3.org/1999/xlink" x="0px" y="0px"
	 viewBox="0 0 85.4 82.5" style="enable-background:new 0 0 85.4 82.5;" xml:space="preserve">
<g id="Layer_7">
</g>
<g id="Color">
</g>
<g id="Layer_8">
</g>
<g id="Art">
</g>
<g id="People">
	<g>
		<g>
			<defs>
				<line id="SVGID_1_" x1="971.2" y1="-2618.6" x2="-468.8" y2="-2618.6"/>
			</defs>
			<defs>
				<line id="SVGID_2_" x1="-468.8" y1="2555.4" x2="971.2" y2="2555.4"/>
			</defs>
			<clipPath id="SVGID_3_">
				<use xlink:href="#SVGID_1_"  style="overflow:visible;"/>
			</clipPath>
			<clipPath id="SVGID_4_" style="clip-path:url(#SVGID_3_);">
				<use xlink:href="#SVGID_2_"  style="overflow:visible;"/>
			</clipPath>
		</g>
		<g>
			<g>
				<defs>
					<line id="SVGID_5_" x1="971.2" y1="-2618.6" x2="-468.8" y2="-2618.6"/>
				</defs>
				<defs>
					<line id="SVGID_6_" x1="-468.8" y1="2555.4" x2="971.2" y2="2555.4"/>
				</defs>
				<clipPath id="SVGID_7_">
					<use xlink:href="#SVGID_5_"  style="overflow:visible;"/>
				</clipPath>
				<clipPath id="SVGID_8_" style="clip-path:url(#SVGID_7_);">
					<use xlink:href="#SVGID_6_"  style="overflow:visible;"/>
				</clipPath>
			</g>
		</g>
		<g>
			<g>
				<defs>
					<line id="SVGID_9_" x1="971.2" y1="-2618.6" x2="-468.8" y2="-2618.6"/>
				</defs>
				<defs>
					<line id="SVGID_10_" x1="-468.8" y1="2555.4" x2="971.2" y2="2555.4"/>
				</defs>
				<clipPath id="SVGID_11_">
					<use xlink:href="#SVGID_9_"  style="overflow:visible;"/>
				</clipPath>
				<clipPath id="SVGID_12_" style="clip-path:url(#SVGID_11_);">
					<use xlink:href="#SVGID_10_"  style="overflow:visible;"/>
				</clipPath>
			</g>
		</g>
		<g>
			<defs>
				<line id="SVGID_13_" x1="971.2" y1="-2618.6" x2="-468.8" y2="-2618.6"/>
			</defs>
			<defs>
				<line id="SVGID_14_" x1="-468.8" y1="2555.4" x2="971.2" y2="2555.4"/>
			</defs>
			<clipPath id="SVGID_15_">
				<use xlink:href="#SVGID_13_"  style="overflow:visible;"/>
			</clipPath>
			<clipPath id="SVGID_16_" style="clip-path:url(#SVGID_15_);">
				<use xlink:href="#SVGID_14_"  style="overflow:visible;"/>
			</clipPath>
		</g>
	</g>
	<g>
		<path style="opacity:0.57;fill:#FFFFFF;" d="M14.6,31.4v-6.1c0-2.4,1.9-4.3,4.3-4.3h0.8c2.4,0,4.3,1.9,4.3,4.3v8.3h-5.7"/>
		<path style="fill:#FFFFFF;" d="M0.8,55.2c0,0,3.3-12.4,7.4-15.3v-8.6h8.7l4.7-3l0,5.2l2.9-0.3c0,0,6.2-0.5,11.6-7.3s4.6,0,4.6,0
			s-2.1,10.7-15.9,14.3l0,40l-0.1,1.6l-6.6-0.2L11.6,81c0,0,0-33.6,0-34s-4,3.1-6.9,8C4.7,54.9,3,58.5,0.8,55.2z"/>
		<path style="fill:#243478;" d="M19.3,26L19.3,26c1.3,0,2.3,1.1,2.3,2.3v0.9l-2.7,2.5l-0.2-0.4h-1.7v-3C16.9,27.1,18,26,19.3,26z"
			/>
		
			<line style="fill:none;stroke:#CEE3FF;stroke-width:1.5;stroke-linecap:round;stroke-linejoin:round;stroke-miterlimit:10;" x1="24.5" y1="70.3" x2="18.1" y2="70.3"/>
		
			<line style="fill:none;stroke:#CEE3FF;stroke-width:1.5;stroke-linecap:round;stroke-linejoin:round;stroke-miterlimit:10;" x1="18.1" y1="70.3" x2="11.8" y2="70.3"/>
		<path style="fill:none;stroke:#243478;stroke-width:1.5;stroke-linecap:round;stroke-linejoin:round;stroke-miterlimit:10;" d="
			M16.9,31.4v-3c0-1.3,1.1-2.3,2.3-2.3h0c1.3,0,2.3,1.1,2.3,2.3V34"/>
		
			<line style="fill:none;stroke:#CEE3FF;stroke-width:1.5;stroke-linecap:round;stroke-linejoin:round;stroke-miterlimit:10;" x1="14.9" y1="36.2" x2="8.2" y2="36.2"/>
		
			<line style="fill:none;stroke:#243478;stroke-width:1.5;stroke-linecap:round;stroke-linejoin:round;stroke-miterlimit:10;" x1="21.8" y1="34.1" x2="18.3" y2="34.1"/>
		<path style="fill:none;stroke:#243478;stroke-width:1.5;stroke-linecap:round;stroke-linejoin:round;stroke-miterlimit:10;" d="
			M14.6,31.4v-6.1c0-2.4,1.9-4.3,4.3-4.3h0.8c2.4,0,4.3,1.9,4.3,4.3v8.1"/>
		<path style="fill:none;stroke:#243478;stroke-width:1.5;stroke-linecap:round;stroke-linejoin:round;stroke-miterlimit:10;" d="
			M11.6,46.6v6.3h13v-9.2v-3.3l2.2-0.6c3.2-0.9,6.1-2.6,8.5-4.9c3.3-3.3,4.8-6.9,5.5-9.8c0.4-1.8-1.9-2.8-3-1.4l-3.9,4.9
			c-1.4,1.7-3.3,3-5.4,3.8l-1.6,0.5c-1.1,0.4-2.2,0.5-3.3,0.6c-1.2,0.1-2.2,0.9-2.6,2.1l0,0"/>
		
			<rect x="8.2" y="31.4" transform="matrix(-1 -4.469726e-11 4.469726e-11 -1 26.5171 77.9873)" style="fill:none;stroke:#243478;stroke-width:1.5;stroke-linecap:round;stroke-linejoin:round;stroke-miterlimit:10;" width="10.1" height="15.2"/>
		
			<rect x="8.2" y="31.4" transform="matrix(-1 -4.482160e-11 4.482160e-11 -1 23.1208 77.9873)" style="fill:none;stroke:#243478;stroke-width:1.5;stroke-linecap:round;stroke-linejoin:round;stroke-miterlimit:10;" width="6.7" height="15.2"/>
		
			<polyline style="fill:none;stroke:#243478;stroke-width:1.5;stroke-linecap:round;stroke-linejoin:round;stroke-miterlimit:10;" points="
			18.1,81.7 18.1,59.1 14.9,59.1 		"/>
		
			<polyline style="fill:none;stroke:#243478;stroke-width:1.5;stroke-linecap:round;stroke-linejoin:round;stroke-miterlimit:10;" points="
			24.5,52.9 24.5,79.3 28,81.7 11.6,81.8 11.6,52.9 		"/>
		
			<line style="fill:none;stroke:#243478;stroke-width:1.5;stroke-linecap:round;stroke-linejoin:round;stroke-miterlimit:10;" x1="24.5" y1="72.7" x2="18.1" y2="72.7"/>
		
			<line style="fill:none;stroke:#243478;stroke-width:1.5;stroke-linecap:round;stroke-linejoin:round;stroke-miterlimit:10;" x1="18.1" y1="72.7" x2="11.6" y2="72.7"/>
		<path style="fill:none;stroke:#243478;stroke-width:1.5;stroke-linecap:round;stroke-linejoin:round;stroke-miterlimit:10;" d="
			M8.2,39.4c0,0-5.3,5.9-7.4,15c-0.5,2.1,2.4,3.2,3.4,1.3c2-3.8,4.6-7.6,7.3-9.1"/>
		<circle style="fill:#243478;" cx="18.3" cy="25.2" r="2"/>
	</g>
	<g>
		<path style="opacity:0.57;fill:#FFFFFF;" d="M70.8,31.3v-6.1c0-2.4-1.9-4.3-4.3-4.3h-0.8c-2.4,0-4.3,1.9-4.3,4.3v8.3h5.7"/>
		<path style="fill:#FFFFFF;" d="M84.6,55.2c0,0-3.3-12.4-7.4-15.3v-8.6h-8.7l-4.7-3v5.2l-2.9-0.3c0,0-6.2-0.5-11.6-7.3
			s-4.6,0-4.6,0s2.1,10.7,15.9,14.3l0,40l0.1,1.6l6.6-0.2l6.5-0.8c0,0,0-33.6,0-34s4,3.1,6.9,8C80.8,54.9,82.4,58.5,84.6,55.2z"/>
		<path style="fill:#CEE3FF;" d="M66.1,26L66.1,26c-1.3,0-2.3,1.1-2.3,2.3v0.9l2.7,2.5l0.2-0.4h1.7v-3C68.5,27,67.4,26,66.1,26z"/>
		
			<line style="fill:none;stroke:#CEE3FF;stroke-width:1.5;stroke-linecap:round;stroke-linejoin:round;stroke-miterlimit:10;" x1="60.9" y1="70.2" x2="67.3" y2="70.2"/>
		
			<line style="fill:none;stroke:#CEE3FF;stroke-width:1.5;stroke-linecap:round;stroke-linejoin:round;stroke-miterlimit:10;" x1="67.3" y1="70.2" x2="73.6" y2="70.2"/>
		<path style="fill:none;stroke:#243478;stroke-width:1.5;stroke-linecap:round;stroke-linejoin:round;stroke-miterlimit:10;" d="
			M68.5,31.3v-3c0-1.3-1.1-2.3-2.3-2.3h0c-1.3,0-2.3,1.1-2.3,2.3v5.6"/>
		
			<line style="fill:none;stroke:#CEE3FF;stroke-width:1.5;stroke-linecap:round;stroke-linejoin:round;stroke-miterlimit:10;" x1="70.5" y1="36.1" x2="77.2" y2="36.1"/>
		
			<line style="fill:none;stroke:#243478;stroke-width:1.5;stroke-linecap:round;stroke-linejoin:round;stroke-miterlimit:10;" x1="63.6" y1="34" x2="67.1" y2="34"/>
		<path style="fill:none;stroke:#243478;stroke-width:1.5;stroke-linecap:round;stroke-linejoin:round;stroke-miterlimit:10;" d="
			M70.8,31.3v-6.1c0-2.4-1.9-4.3-4.3-4.3h-0.8c-2.4,0-4.3,1.9-4.3,4.3v8.1"/>
		<path style="fill:none;stroke:#243478;stroke-width:1.5;stroke-linecap:round;stroke-linejoin:round;stroke-miterlimit:10;" d="
			M73.8,46.5v6.3h-13v-9.2v-3.3l-2.2-0.6c-3.2-0.9-6.1-2.6-8.5-4.9c-3.3-3.3-4.8-6.9-5.5-9.8c-0.4-1.8,1.9-2.8,3-1.4l3.9,4.9
			c1.4,1.7,3.3,3,5.4,3.8l1.6,0.5c1.1,0.4,2.2,0.5,3.3,0.6c1.2,0.1,2.2,0.9,2.6,2.1l0,0"/>
		
			<rect x="67.1" y="31.3" style="fill:none;stroke:#243478;stroke-width:1.5;stroke-linecap:round;stroke-linejoin:round;stroke-miterlimit:10;" width="10.1" height="15.2"/>
		
			<rect x="70.5" y="31.3" style="fill:none;stroke:#243478;stroke-width:1.5;stroke-linecap:round;stroke-linejoin:round;stroke-miterlimit:10;" width="6.7" height="15.2"/>
		
			<polyline style="fill:none;stroke:#243478;stroke-width:1.5;stroke-linecap:round;stroke-linejoin:round;stroke-miterlimit:10;" points="
			67.3,81.7 67.3,59 70.5,59 		"/>
		
			<polyline style="fill:none;stroke:#243478;stroke-width:1.5;stroke-linecap:round;stroke-linejoin:round;stroke-miterlimit:10;" points="
			60.9,52.9 60.9,79.2 57.4,81.7 73.8,81.7 73.8,52.9 		"/>
		
			<line style="fill:none;stroke:#243478;stroke-width:1.5;stroke-linecap:round;stroke-linejoin:round;stroke-miterlimit:10;" x1="60.9" y1="72.7" x2="67.3" y2="72.7"/>
		
			<line style="fill:none;stroke:#243478;stroke-width:1.5;stroke-linecap:round;stroke-linejoin:round;stroke-miterlimit:10;" x1="67.3" y1="72.7" x2="73.8" y2="72.7"/>
		<path style="fill:none;stroke:#243478;stroke-width:1.5;stroke-linecap:round;stroke-linejoin:round;stroke-miterlimit:10;" d="
			M77.2,39.4c0,0,5.3,5.9,7.4,15c0.5,2.1-2.4,3.2-3.4,1.3c-2-3.8-4.6-7.6-7.3-9.1"/>
	</g>
	
		<line style="fill:none;stroke:#6BD1FF;stroke-width:1.5;stroke-linecap:round;stroke-linejoin:round;stroke-miterlimit:10;" x1="47.8" y1="16.3" x2="54.6" y2="9.5"/>
	
		<line style="fill:none;stroke:#6BD1FF;stroke-width:1.5;stroke-linecap:round;stroke-linejoin:round;stroke-miterlimit:10;" x1="37.7" y1="16.3" x2="30.9" y2="9.4"/>
	
		<line style="fill:none;stroke:#6BD1FF;stroke-width:1.5;stroke-linecap:round;stroke-linejoin:round;stroke-miterlimit:10;" x1="42.8" y1="14.3" x2="42.8" y2="0.8"/>
	
		<line style="fill:none;stroke:#6BD1FF;stroke-width:1.5;stroke-linecap:round;stroke-linejoin:round;stroke-miterlimit:10;" x1="50.7" y1="19.9" x2="56.4" y2="19.9"/>
	
		<line style="fill:none;stroke:#6BD1FF;stroke-width:1.5;stroke-linecap:round;stroke-linejoin:round;stroke-miterlimit:10;" x1="29.9" y1="19.9" x2="35.6" y2="19.9"/>
</g>
</svg>
