<?xml version="1.0" encoding="utf-8"?>
<!-- Generator: Adobe Illustrator 22.1.0, SVG Export Plug-In . SVG Version: 6.00 Build 0)  -->
<svg version="1.1" xmlns="http://www.w3.org/2000/svg" xmlns:xlink="http://www.w3.org/1999/xlink" x="0px" y="0px"
	 viewBox="0 0 86.4 81.2" style="enable-background:new 0 0 86.4 81.2;" xml:space="preserve">
<g id="Layer_7">
</g>
<g id="Color">
</g>
<g id="Layer_8">
</g>
<g id="Art">
</g>
<g id="People">
	<g>
		<g>
			<defs>
				<line id="SVGID_1_" x1="1235.4" y1="-2619.9" x2="-204.6" y2="-2619.9"/>
			</defs>
			<defs>
				<line id="SVGID_2_" x1="-204.6" y1="2554.1" x2="1235.4" y2="2554.1"/>
			</defs>
			<clipPath id="SVGID_3_">
				<use xlink:href="#SVGID_1_"  style="overflow:visible;"/>
			</clipPath>
			<clipPath id="SVGID_4_" style="clip-path:url(#SVGID_3_);">
				<use xlink:href="#SVGID_2_"  style="overflow:visible;"/>
			</clipPath>
		</g>
		<g>
			<g>
				<defs>
					<line id="SVGID_5_" x1="1235.4" y1="-2619.9" x2="-204.6" y2="-2619.9"/>
				</defs>
				<defs>
					<line id="SVGID_6_" x1="-204.6" y1="2554.1" x2="1235.4" y2="2554.1"/>
				</defs>
				<clipPath id="SVGID_7_">
					<use xlink:href="#SVGID_5_"  style="overflow:visible;"/>
				</clipPath>
				<clipPath id="SVGID_8_" style="clip-path:url(#SVGID_7_);">
					<use xlink:href="#SVGID_6_"  style="overflow:visible;"/>
				</clipPath>
			</g>
		</g>
		<g>
			<g>
				<defs>
					<line id="SVGID_9_" x1="1235.4" y1="-2619.9" x2="-204.6" y2="-2619.9"/>
				</defs>
				<defs>
					<line id="SVGID_10_" x1="-204.6" y1="2554.1" x2="1235.4" y2="2554.1"/>
				</defs>
				<clipPath id="SVGID_11_">
					<use xlink:href="#SVGID_9_"  style="overflow:visible;"/>
				</clipPath>
				<clipPath id="SVGID_12_" style="clip-path:url(#SVGID_11_);">
					<use xlink:href="#SVGID_10_"  style="overflow:visible;"/>
				</clipPath>
			</g>
		</g>
		<g>
			<defs>
				<line id="SVGID_13_" x1="1235.4" y1="-2619.9" x2="-204.6" y2="-2619.9"/>
			</defs>
			<defs>
				<line id="SVGID_14_" x1="-204.6" y1="2554.1" x2="1235.4" y2="2554.1"/>
			</defs>
			<clipPath id="SVGID_15_">
				<use xlink:href="#SVGID_13_"  style="overflow:visible;"/>
			</clipPath>
			<clipPath id="SVGID_16_" style="clip-path:url(#SVGID_15_);">
				<use xlink:href="#SVGID_14_"  style="overflow:visible;"/>
			</clipPath>
		</g>
	</g>
	<g>
		
			<rect x="5.6" y="0.8" style="fill:none;stroke:#E5EFFF;stroke-width:1.5;stroke-linecap:round;stroke-linejoin:round;stroke-miterlimit:10;" width="80" height="60"/>
		<g>
			
				<circle style="fill:none;stroke:#E5EFFF;stroke-width:1.5;stroke-linecap:round;stroke-linejoin:round;stroke-miterlimit:10;" cx="62.4" cy="47" r="1.5"/>
			
				<rect x="50.4" y="8.7" style="fill:none;stroke:#E5EFFF;stroke-width:1.5;stroke-linecap:round;stroke-linejoin:round;stroke-miterlimit:10;" width="24" height="42"/>
			
				<rect x="48.5" y="21.9" transform="matrix(-1.836970e-16 1 -1 -1.836970e-16 91.7124 -33.0074)" style="fill:none;stroke:#E5EFFF;stroke-width:1.5;stroke-linecap:round;stroke-linejoin:round;stroke-miterlimit:10;" width="27.8" height="15"/>
			
				<line style="fill:none;stroke:#E5EFFF;stroke-width:1.5;stroke-linecap:round;stroke-linejoin:round;stroke-miterlimit:10;" x1="60.5" y1="12.1" x2="64.2" y2="12.1"/>
		</g>
		
			<line style="fill:none;stroke:#E5EFFF;stroke-width:1.5;stroke-linecap:round;stroke-linejoin:round;stroke-miterlimit:10;" x1="38.6" y1="5.5" x2="38.6" y2="53.2"/>
		
			<line style="fill:none;stroke:#E5EFFF;stroke-width:1.5;stroke-linecap:round;stroke-linejoin:round;stroke-miterlimit:10;" x1="13.6" y1="8.7" x2="30" y2="8.7"/>
		
			<line style="fill:none;stroke:#E5EFFF;stroke-width:1.5;stroke-linecap:round;stroke-linejoin:round;stroke-miterlimit:10;" x1="13.6" y1="14.2" x2="26.4" y2="14.2"/>
		
			<line style="fill:none;stroke:#E5EFFF;stroke-width:1.5;stroke-linecap:round;stroke-linejoin:round;stroke-miterlimit:10;" x1="13.6" y1="30.7" x2="30" y2="30.7"/>
		
			<line style="fill:none;stroke:#E5EFFF;stroke-width:1.5;stroke-linecap:round;stroke-linejoin:round;stroke-miterlimit:10;" x1="18.5" y1="19.7" x2="28.6" y2="19.7"/>
		
			<line style="fill:none;stroke:#E5EFFF;stroke-width:1.5;stroke-linecap:round;stroke-linejoin:round;stroke-miterlimit:10;" x1="18.5" y1="36.2" x2="28.6" y2="36.2"/>
		
			<line style="fill:none;stroke:#E5EFFF;stroke-width:1.5;stroke-linecap:round;stroke-linejoin:round;stroke-miterlimit:10;" x1="18.5" y1="41.7" x2="28.6" y2="41.7"/>
		
			<line style="fill:none;stroke:#E5EFFF;stroke-width:1.5;stroke-linecap:round;stroke-linejoin:round;stroke-miterlimit:10;" x1="13.6" y1="47.2" x2="30" y2="47.2"/>
		
			<line style="fill:none;stroke:#E5EFFF;stroke-width:1.5;stroke-linecap:round;stroke-linejoin:round;stroke-miterlimit:10;" x1="13.6" y1="52.7" x2="30" y2="52.7"/>
		
			<line style="fill:none;stroke:#E5EFFF;stroke-width:1.5;stroke-linecap:round;stroke-linejoin:round;stroke-miterlimit:10;" x1="18.5" y1="25.2" x2="26.4" y2="25.2"/>
	</g>
	<g>
		<g>
			<polyline style="fill:none;stroke:#81D9BE;stroke-width:1.5;stroke-linecap:round;stroke-linejoin:round;" points="0.8,57.4 
				18.1,46.6 43.8,41.5 50.3,31.5 66.5,25.2 77.3,14.3 			"/>
			<g>
				<path style="fill:#81D9BE;" d="M80.5,11.1c-0.9,2.1-1.9,4.9-2,7.1l-1.6-3.4l-3.4-1.6C75.7,13,78.5,12,80.5,11.1z"/>
			</g>
		</g>
	</g>
	<g>
		<path style="opacity:0.57;fill:#FFFFFF;" d="M24.1,19.4v-7.4c0-2.9,2.3-5.2,5.2-5.2h1c2.9,0,5.2,2.3,5.2,5.2V22h-7"/>
		<path style="fill:#FFFFFF;" d="M7.4,48.3c0,0,4-15,9-18.5V19.4h10.5l5.7-3.7l0,6.3l3.5-0.4c0,0,7.6-0.6,14.1-8.8s5.6,0,5.6,0
			s-2.5,13-19.3,17.4l-0.1,48.5l-0.1,2l-8.1-0.2l-7.9-0.9c0,0,0-40.7,0-41.2s-4.8,3.7-8.4,9.7C12.1,47.9,10.1,52.3,7.4,48.3z"/>
		<path style="fill:#243478;" d="M29.8,12.8L29.8,12.8c1.6,0,2.8,1.3,2.8,2.8v1.1l-3.3,3.1L29,19.4h-2.1v-3.7
			C26.9,14.1,28.2,12.8,29.8,12.8z"/>
		
			<line style="fill:none;stroke:#CEE3FF;stroke-width:1.5;stroke-linecap:round;stroke-linejoin:round;stroke-miterlimit:10;" x1="36.2" y1="66.5" x2="28.3" y2="66.5"/>
		
			<line style="fill:none;stroke:#CEE3FF;stroke-width:1.5;stroke-linecap:round;stroke-linejoin:round;stroke-miterlimit:10;" x1="28.3" y1="66.5" x2="20.7" y2="66.5"/>
		<path style="fill:none;stroke:#243478;stroke-width:1.5;stroke-linecap:round;stroke-linejoin:round;stroke-miterlimit:10;" d="
			M26.9,19.4v-3.7c0-1.6,1.3-2.8,2.8-2.8h0c1.6,0,2.8,1.3,2.8,2.8v6.8"/>
		
			<line style="fill:none;stroke:#CEE3FF;stroke-width:1.5;stroke-linecap:round;stroke-linejoin:round;stroke-miterlimit:10;" x1="24.5" y1="25.2" x2="16.4" y2="25.2"/>
		
			<line style="fill:none;stroke:#243478;stroke-width:1.5;stroke-linecap:round;stroke-linejoin:round;stroke-miterlimit:10;" x1="32.9" y1="22.7" x2="28.6" y2="22.7"/>
		<path style="fill:none;stroke:#243478;stroke-width:1.5;stroke-linecap:round;stroke-linejoin:round;stroke-miterlimit:10;" d="
			M24.1,19.4v-7.4c0-2.9,2.3-5.2,5.2-5.2h1c2.9,0,5.2,2.3,5.2,5.2v9.8"/>
		<path style="fill:none;stroke:#243478;stroke-width:1.5;stroke-linecap:round;stroke-linejoin:round;stroke-miterlimit:10;" d="
			M20.4,37.8v7.7h15.7V34.3v-4l2.6-0.8c3.8-1.1,7.4-3.1,10.3-5.9c4-3.9,5.8-8.4,6.6-11.9c0.5-2.1-2.3-3.4-3.7-1.7l-4.8,5.9
			c-1.7,2.1-3.9,3.7-6.5,4.6l-1.9,0.7c-1.3,0.4-2.6,0.6-4,0.7c-1.4,0.1-2.7,1.1-3.2,2.5l0,0"/>
		
			<rect x="16.4" y="19.4" transform="matrix(-1 -4.476387e-11 4.476387e-11 -1 45.0159 57.1358)" style="fill:none;stroke:#243478;stroke-width:1.5;stroke-linecap:round;stroke-linejoin:round;stroke-miterlimit:10;" width="12.2" height="18.4"/>
		
			<rect x="16.4" y="19.4" transform="matrix(-1 -4.484558e-11 4.484558e-11 -1 40.897 57.1358)" style="fill:none;stroke:#243478;stroke-width:1.5;stroke-linecap:round;stroke-linejoin:round;stroke-miterlimit:10;" width="8.1" height="18.4"/>
		
			<polyline style="fill:none;stroke:#243478;stroke-width:1.5;stroke-linecap:round;stroke-linejoin:round;stroke-miterlimit:10;" points="
			28.3,80.4 28.3,52.9 24.5,52.9 		"/>
		
			<polyline style="fill:none;stroke:#243478;stroke-width:1.5;stroke-linecap:round;stroke-linejoin:round;stroke-miterlimit:10;" points="
			36.2,45.5 36.2,77.4 40.4,80.4 20.4,80.4 20.4,45.5 		"/>
		
			<line style="fill:none;stroke:#243478;stroke-width:1.5;stroke-linecap:round;stroke-linejoin:round;stroke-miterlimit:10;" x1="36.2" y1="69.5" x2="28.3" y2="69.5"/>
		
			<line style="fill:none;stroke:#243478;stroke-width:1.5;stroke-linecap:round;stroke-linejoin:round;stroke-miterlimit:10;" x1="28.3" y1="69.5" x2="20.4" y2="69.5"/>
		<path style="fill:none;stroke:#243478;stroke-width:1.5;stroke-linecap:round;stroke-linejoin:round;stroke-miterlimit:10;" d="
			M16.4,29.1c0,0-6.4,7.2-9,18.1c-0.6,2.5,2.9,3.9,4.1,1.6c2.5-4.6,5.6-9.2,8.9-11.1"/>
		<circle style="fill:#243478;" cx="28.6" cy="11.8" r="2.4"/>
	</g>
</g>
</svg>
