<?xml version="1.0" encoding="utf-8"?>
<!-- Generator: Adobe Illustrator 22.1.0, SVG Export Plug-In . SVG Version: 6.00 Build 0)  -->
<svg version="1.1" xmlns="http://www.w3.org/2000/svg" xmlns:xlink="http://www.w3.org/1999/xlink" x="0px" y="0px"
	 viewBox="0 0 81.5 81.5" style="enable-background:new 0 0 81.5 81.5;" xml:space="preserve">
<g id="Layer_7">
</g>
<g id="Color">
</g>
<g id="Layer_8">
</g>
<g id="Art">
</g>
<g id="People">
	<g>
		<g>
			<defs>
				<line id="SVGID_1_" x1="1362.9" y1="-2620" x2="-77.1" y2="-2620"/>
			</defs>
			<defs>
				<line id="SVGID_2_" x1="-77.1" y1="2554" x2="1362.9" y2="2554"/>
			</defs>
			<clipPath id="SVGID_3_">
				<use xlink:href="#SVGID_1_"  style="overflow:visible;"/>
			</clipPath>
			<clipPath id="SVGID_4_" style="clip-path:url(#SVGID_3_);">
				<use xlink:href="#SVGID_2_"  style="overflow:visible;"/>
			</clipPath>
		</g>
		<g>
			<g>
				<defs>
					<line id="SVGID_5_" x1="1362.9" y1="-2620" x2="-77.1" y2="-2620"/>
				</defs>
				<defs>
					<line id="SVGID_6_" x1="-77.1" y1="2554" x2="1362.9" y2="2554"/>
				</defs>
				<clipPath id="SVGID_7_">
					<use xlink:href="#SVGID_5_"  style="overflow:visible;"/>
				</clipPath>
				<clipPath id="SVGID_8_" style="clip-path:url(#SVGID_7_);">
					<use xlink:href="#SVGID_6_"  style="overflow:visible;"/>
				</clipPath>
			</g>
		</g>
		<g>
			<g>
				<defs>
					<line id="SVGID_9_" x1="1362.9" y1="-2620" x2="-77.1" y2="-2620"/>
				</defs>
				<defs>
					<line id="SVGID_10_" x1="-77.1" y1="2554" x2="1362.9" y2="2554"/>
				</defs>
				<clipPath id="SVGID_11_">
					<use xlink:href="#SVGID_9_"  style="overflow:visible;"/>
				</clipPath>
				<clipPath id="SVGID_12_" style="clip-path:url(#SVGID_11_);">
					<use xlink:href="#SVGID_10_"  style="overflow:visible;"/>
				</clipPath>
			</g>
		</g>
		<g>
			<defs>
				<line id="SVGID_13_" x1="1362.9" y1="-2620" x2="-77.1" y2="-2620"/>
			</defs>
			<defs>
				<line id="SVGID_14_" x1="-77.1" y1="2554" x2="1362.9" y2="2554"/>
			</defs>
			<clipPath id="SVGID_15_">
				<use xlink:href="#SVGID_13_"  style="overflow:visible;"/>
			</clipPath>
			<clipPath id="SVGID_16_" style="clip-path:url(#SVGID_15_);">
				<use xlink:href="#SVGID_14_"  style="overflow:visible;"/>
			</clipPath>
		</g>
	</g>
	<g>
		
			<rect x="0.8" y="56.6" style="fill:none;stroke:#E5EFFF;stroke-width:1.5;stroke-linecap:round;stroke-linejoin:round;stroke-miterlimit:10;" width="24" height="24"/>
		
			<line style="fill:none;stroke:#E5EFFF;stroke-width:1.5;stroke-linecap:round;stroke-linejoin:round;stroke-miterlimit:10;" x1="12.8" y1="56.6" x2="12.8" y2="80.6"/>
		
			<polyline style="fill:none;stroke:#E5EFFF;stroke-width:1.5;stroke-linecap:round;stroke-linejoin:round;stroke-miterlimit:10;" points="
			21,56.6 21,62 16.5,66.4 16.5,80.6 		"/>
	</g>
	<g>
		
			<rect x="0.8" y="32.6" style="fill:none;stroke:#E5EFFF;stroke-width:1.5;stroke-linecap:round;stroke-linejoin:round;stroke-miterlimit:10;" width="24" height="24"/>
		
			<line style="fill:none;stroke:#E5EFFF;stroke-width:1.5;stroke-linecap:round;stroke-linejoin:round;stroke-miterlimit:10;" x1="12.8" y1="32.6" x2="12.8" y2="56.6"/>
		
			<polyline style="fill:none;stroke:#E5EFFF;stroke-width:1.5;stroke-linecap:round;stroke-linejoin:round;stroke-miterlimit:10;" points="
			21,32.6 21,38 16.5,42.4 16.5,56.6 		"/>
	</g>
	<g>
		
			<rect x="56.8" y="28.6" style="fill:none;stroke:#E5EFFF;stroke-width:1.5;stroke-linecap:round;stroke-linejoin:round;stroke-miterlimit:10;" width="24" height="24"/>
		
			<line style="fill:none;stroke:#E5EFFF;stroke-width:1.5;stroke-linecap:round;stroke-linejoin:round;stroke-miterlimit:10;" x1="68.8" y1="28.6" x2="68.8" y2="52.6"/>
	</g>
	<g>
		
			<rect x="56.8" y="12.6" style="fill:none;stroke:#E5EFFF;stroke-width:1.5;stroke-linecap:round;stroke-linejoin:round;stroke-miterlimit:10;" width="16" height="16"/>
		
			<line style="fill:none;stroke:#E5EFFF;stroke-width:1.5;stroke-linecap:round;stroke-linejoin:round;stroke-miterlimit:10;" x1="64.8" y1="12.6" x2="64.8" y2="28.6"/>
	</g>
	<g>
		
			<rect x="52.8" y="52.6" style="fill:none;stroke:#E5EFFF;stroke-width:1.5;stroke-linecap:round;stroke-linejoin:round;stroke-miterlimit:10;" width="28" height="28"/>
		
			<line style="fill:none;stroke:#E5EFFF;stroke-width:1.5;stroke-linecap:round;stroke-linejoin:round;stroke-miterlimit:10;" x1="66.8" y1="52.6" x2="66.8" y2="80.6"/>
		
			<polyline style="fill:none;stroke:#E5EFFF;stroke-width:1.5;stroke-linecap:round;stroke-linejoin:round;stroke-miterlimit:10;" points="
			76.4,52.6 76.4,58.9 71.1,64 71.1,80.6 		"/>
		
			<polyline style="fill:none;stroke:#E5EFFF;stroke-width:1.5;stroke-linecap:round;stroke-linejoin:round;stroke-miterlimit:10;" points="
			48,52.6 48,58.9 42.8,64 42.8,80.6 		"/>
	</g>
	<g>
		
			<rect x="24.8" y="52.6" style="fill:none;stroke:#E5EFFF;stroke-width:1.5;stroke-linecap:round;stroke-linejoin:round;stroke-miterlimit:10;" width="28" height="28"/>
		
			<line style="fill:none;stroke:#E5EFFF;stroke-width:1.5;stroke-linecap:round;stroke-linejoin:round;stroke-miterlimit:10;" x1="38.8" y1="52.6" x2="38.8" y2="80.6"/>
	</g>
	<g>
		<path style="fill:#FFFFFF;" d="M6.3,13.3v20h4.4v47.4H34l-6.2-4V43h19.4v-6.1c0,0,3.4,0.3,3.4-2.3c0-2.5-3.4-3-3.4-3v-13H31.1
			c0,0-0.9-2.5-4.5-2.5h-3.2V8.5c0,0-0.2-2.2-3.1-2.2s-2.8,2.2-2.8,2.2v4.8H6.3z M18.1,49.8h2.2v28.4l-2.2-1.4V49.8z"/>
		<path style="fill:#CEE3FF;" d="M20.4,6.2L20.4,6.2c1.7,0,3.1,1.4,3.1,3.1v1.2l-3.6,3.3l-0.3-0.5h-2.3v-4
			C17.3,7.6,18.7,6.2,20.4,6.2z"/>
		
			<line style="fill:none;stroke:#81D9BE;stroke-width:1.5;stroke-linecap:round;stroke-linejoin:round;stroke-miterlimit:10;" x1="39" y1="36" x2="39" y2="43"/>
		
			<polyline style="fill:none;stroke:#81D9BE;stroke-width:1.5;stroke-linecap:round;stroke-linejoin:round;stroke-miterlimit:10;" points="
			43.4,18.7 43.4,24.2 39.7,28.7 		"/>
		
			<line style="fill:none;stroke:#CEE3FF;stroke-width:1.5;stroke-linecap:round;stroke-linejoin:round;stroke-miterlimit:10;" x1="27.8" y1="64.5" x2="20.4" y2="64.5"/>
		
			<line style="fill:none;stroke:#CEE3FF;stroke-width:1.5;stroke-linecap:round;stroke-linejoin:round;stroke-miterlimit:10;" x1="17.5" y1="64.5" x2="11" y2="64.5"/>
		<path style="fill:none;stroke:#243478;stroke-width:1.5;stroke-linecap:round;stroke-linejoin:round;stroke-miterlimit:10;" d="
			M17.3,13.3v-4c0-1.7,1.4-3.1,3.1-3.1h0c1.7,0,3.1,1.4,3.1,3.1v6.9"/>
		<path style="fill:none;stroke:#CEE3FF;stroke-width:1.5;stroke-linecap:round;stroke-linejoin:round;stroke-miterlimit:10;" d="
			M45,30.9c0,0,0.8,3-1.4,6"/>
		
			<line style="fill:none;stroke:#CEE3FF;stroke-width:1.5;stroke-linecap:round;stroke-linejoin:round;stroke-miterlimit:10;" x1="15.1" y1="19.7" x2="6.3" y2="19.7"/>
		<path style="fill:none;stroke:#243478;stroke-width:1.5;stroke-linecap:round;stroke-linejoin:round;stroke-miterlimit:10;" d="
			M15.1,16.2V6c0-2.9,2.4-5.3,5.3-5.3h1c2.9,0,5.3,2.4,5.3,5.3v10.2h-7"/>
		
			<polyline style="fill:none;stroke:#243478;stroke-width:1.5;stroke-linecap:round;stroke-linejoin:round;stroke-miterlimit:10;" points="
			27.8,29.6 27.8,41.7 10.7,41.7 10.7,33.3 		"/>
		
			<rect x="6.3" y="13.3" transform="matrix(-1 -4.489976e-11 4.489976e-11 -1 25.8938 46.6546)" style="fill:none;stroke:#243478;stroke-width:1.5;stroke-linecap:round;stroke-linejoin:round;stroke-miterlimit:10;" width="13.2" height="20"/>
		
			<rect x="6.3" y="13.3" transform="matrix(-1 -4.500013e-11 4.500013e-11 -1 21.4177 46.6546)" style="fill:none;stroke:#243478;stroke-width:1.5;stroke-linecap:round;stroke-linejoin:round;stroke-miterlimit:10;" width="8.8" height="20"/>
		
			<polyline style="fill:none;stroke:#243478;stroke-width:1.5;stroke-linecap:round;stroke-linejoin:round;stroke-miterlimit:10;" points="
			24.3,80.8 10.7,80.8 10.7,41.7 		"/>
		
			<polyline style="fill:none;stroke:#243478;stroke-width:1.5;stroke-linecap:round;stroke-linejoin:round;stroke-miterlimit:10;" points="
			18.1,49.8 18.1,76.8 20.4,78.2 		"/>
		
			<line style="fill:none;stroke:#243478;stroke-width:1.5;stroke-linecap:round;stroke-linejoin:round;stroke-miterlimit:10;" x1="27.8" y1="67.8" x2="20.4" y2="67.8"/>
		
			<line style="fill:none;stroke:#243478;stroke-width:1.5;stroke-linecap:round;stroke-linejoin:round;stroke-miterlimit:10;" x1="18.1" y1="67.8" x2="10.7" y2="67.8"/>
		
			<polyline style="fill:none;stroke:#81D9BE;stroke-width:1.5;stroke-linecap:round;stroke-linejoin:round;stroke-miterlimit:10;" points="
			35.5,34.7 35.5,43 47.2,43 47.2,36.9 		"/>
		
			<polyline style="fill:none;stroke:#81D9BE;stroke-width:1.5;stroke-linecap:round;stroke-linejoin:round;stroke-miterlimit:10;" points="
			47.2,31.7 47.2,18.7 35.5,18.7 35.5,25.4 		"/>
		
			<polyline style="fill:none;stroke:#81D9BE;stroke-width:1.5;stroke-linecap:round;stroke-linejoin:round;stroke-miterlimit:10;" points="
			35.5,25.4 35.5,18.7 31.6,18.7 		"/>
		
			<polyline style="fill:none;stroke:#81D9BE;stroke-width:1.5;stroke-linecap:round;stroke-linejoin:round;stroke-miterlimit:10;" points="
			27.8,43 35.5,43 35.5,34.7 		"/>
		<path style="fill:none;stroke:#243478;stroke-width:1.5;stroke-linecap:round;stroke-linejoin:round;stroke-miterlimit:10;" d="
			M23.5,20.2c0-2.2,1.8-4,4-4h0c1.6,0,3.1,1,3.7,2.4c0.6,1.4,1.3,2.8,2.2,4.1l1.2,1.5c1.8,2.3,4.2,4.1,6.9,5.2l7.7,3
			c2.2,0.9,1.8,4.2-0.6,4.4c-5.7,0.5-14-0.5-21.9-8.4"/>
		
			<polyline style="fill:none;stroke:#243478;stroke-width:1.5;stroke-linecap:round;stroke-linejoin:round;stroke-miterlimit:10;" points="
			27.8,41.7 27.8,76.8 34,80.8 20.4,80.8 20.4,49.8 15.1,49.8 		"/>
	</g>
</g>
</svg>
