<?xml version="1.0" encoding="utf-8"?>
<!-- Generator: Adobe Illustrator 22.1.0, SVG Export Plug-In . SVG Version: 6.00 Build 0)  -->
<svg version="1.1" xmlns="http://www.w3.org/2000/svg" xmlns:xlink="http://www.w3.org/1999/xlink" x="0px" y="0px"
	 viewBox="0 0 113.1 81.5" style="enable-background:new 0 0 113.1 81.5;" xml:space="preserve">
<g id="Layer_7">
</g>
<g id="Color">
</g>
<g id="Layer_8">
</g>
<g id="Art">
</g>
<g id="People">
	<g>
		<g>
			<defs>
				<line id="SVGID_1_" x1="1120.4" y1="-2620.1" x2="-319.6" y2="-2620.1"/>
			</defs>
			<defs>
				<line id="SVGID_2_" x1="-319.6" y1="2553.9" x2="1120.4" y2="2553.9"/>
			</defs>
			<clipPath id="SVGID_3_">
				<use xlink:href="#SVGID_1_"  style="overflow:visible;"/>
			</clipPath>
			<clipPath id="SVGID_4_" style="clip-path:url(#SVGID_3_);">
				<use xlink:href="#SVGID_2_"  style="overflow:visible;"/>
			</clipPath>
		</g>
		<g>
			<g>
				<defs>
					<line id="SVGID_5_" x1="1120.4" y1="-2620.1" x2="-319.6" y2="-2620.1"/>
				</defs>
				<defs>
					<line id="SVGID_6_" x1="-319.6" y1="2553.9" x2="1120.4" y2="2553.9"/>
				</defs>
				<clipPath id="SVGID_7_">
					<use xlink:href="#SVGID_5_"  style="overflow:visible;"/>
				</clipPath>
				<clipPath id="SVGID_8_" style="clip-path:url(#SVGID_7_);">
					<use xlink:href="#SVGID_6_"  style="overflow:visible;"/>
				</clipPath>
			</g>
		</g>
		<g>
			<g>
				<defs>
					<line id="SVGID_9_" x1="1120.4" y1="-2620.1" x2="-319.6" y2="-2620.1"/>
				</defs>
				<defs>
					<line id="SVGID_10_" x1="-319.6" y1="2553.9" x2="1120.4" y2="2553.9"/>
				</defs>
				<clipPath id="SVGID_11_">
					<use xlink:href="#SVGID_9_"  style="overflow:visible;"/>
				</clipPath>
				<clipPath id="SVGID_12_" style="clip-path:url(#SVGID_11_);">
					<use xlink:href="#SVGID_10_"  style="overflow:visible;"/>
				</clipPath>
			</g>
		</g>
		<g>
			<defs>
				<line id="SVGID_13_" x1="1120.4" y1="-2620.1" x2="-319.6" y2="-2620.1"/>
			</defs>
			<defs>
				<line id="SVGID_14_" x1="-319.6" y1="2553.9" x2="1120.4" y2="2553.9"/>
			</defs>
			<clipPath id="SVGID_15_">
				<use xlink:href="#SVGID_13_"  style="overflow:visible;"/>
			</clipPath>
			<clipPath id="SVGID_16_" style="clip-path:url(#SVGID_15_);">
				<use xlink:href="#SVGID_14_"  style="overflow:visible;"/>
			</clipPath>
		</g>
	</g>
	<g>
		<path style="fill:none;stroke:#E06F5D;stroke-width:1.5;stroke-linecap:round;stroke-linejoin:round;stroke-miterlimit:10;" d="
			M56.8,12.2c0,1,0.4,1.8,1,2.5l0,0l0.2,0.2l0,0l6.2,6.1l6.3-6.2c0.7-0.7,1.1-1.6,1.1-2.6c0-2-1.6-3.7-3.7-3.7c-2,0-3.7,1.6-3.7,3.7
			c0-2-1.6-3.7-3.7-3.7C58.5,8.5,56.8,10.2,56.8,12.2z"/>
		<path style="fill:none;stroke:#E5EFFF;stroke-width:1.5;stroke-linecap:round;stroke-linejoin:round;stroke-miterlimit:10;" d="
			M81.6,12.1c-0.8-5.4-5.8-9.4-11.1-10.7c-8-1.9-22.7,0-23.8,10.5c-0.3,3.5,1.1,7,3.5,9.6c-0.4,0.7-0.8,1.4-1.4,2.1
			c-1.1,1.3,0.1,3.3,1.8,3c1.2-0.2,2.6-0.8,4.1-1.8c2.5,1.3,5.3,2,8.1,2.2c4.6,0.4,9.4-0.4,13.2-3.1C79.8,21.3,82.3,16.7,81.6,12.1z
			"/>
		<g>
			
				<line style="fill:none;stroke:#E5EFFF;stroke-width:1.5;stroke-linecap:round;stroke-linejoin:round;stroke-miterlimit:10;" x1="13.3" y1="56.2" x2="13.3" y2="60.7"/>
			
				<line style="fill:none;stroke:#E5EFFF;stroke-width:1.5;stroke-linecap:round;stroke-linejoin:round;stroke-miterlimit:10;" x1="60" y1="70.8" x2="26.1" y2="70.8"/>
			
				<line style="fill:none;stroke:#E5EFFF;stroke-width:1.5;stroke-linecap:round;stroke-linejoin:round;stroke-miterlimit:10;" x1="93.3" y1="70.8" x2="85.8" y2="70.8"/>
			
				<line style="fill:none;stroke:#E5EFFF;stroke-width:1.5;stroke-linecap:round;stroke-linejoin:round;stroke-miterlimit:10;" x1="33.7" y1="64.1" x2="33.7" y2="70.7"/>
			
				<line style="fill:none;stroke:#E5EFFF;stroke-width:1.5;stroke-linecap:round;stroke-linejoin:round;stroke-miterlimit:10;" x1="54.8" y1="64.1" x2="54.8" y2="70.7"/>
			<path style="fill:none;stroke:#243478;stroke-width:1.5;stroke-linecap:round;stroke-linejoin:round;stroke-miterlimit:10;" d="
				M37.6,24.7h-1c-2.4,0-4.3,1.9-4.3,4.3v6.9h9.6v-6.9C41.9,26.7,40,24.7,37.6,24.7z"/>
			
				<polyline style="fill:none;stroke:#E5EFFF;stroke-width:1.5;stroke-linecap:round;stroke-linejoin:round;stroke-miterlimit:10;" points="
				35.9,45.2 35.9,53.2 42,58.5 42,64.1 			"/>
			
				<circle style="fill:none;stroke:#243478;stroke-width:1.5;stroke-linecap:round;stroke-linejoin:round;stroke-miterlimit:10;" cx="10.7" cy="70.8" r="9.9"/>
			
				<circle style="fill:none;stroke:#E5EFFF;stroke-width:1.5;stroke-linecap:round;stroke-linejoin:round;stroke-miterlimit:10;" cx="10.7" cy="70.8" r="5.8"/>
			<path style="fill:none;stroke:#243478;stroke-width:1.5;stroke-linecap:round;stroke-linejoin:round;stroke-miterlimit:10;" d="
				M10.7,60.9h5.1c5.5,0,9.9,4.4,9.9,9.9v0c0,5.5-4.4,9.9-9.9,9.9h-5.1"/>
			<path style="fill:none;stroke:#243478;stroke-width:1.5;stroke-linecap:round;stroke-linejoin:round;stroke-miterlimit:10;" d="
				M93.4,60.9c5.5,0,9.9,4.4,9.9,9.9s-4.4,9.9-9.9,9.9c-3.9,0-7.3-2.3-8.9-5.6"/>
			<path style="fill:none;stroke:#243478;stroke-width:1.5;stroke-linecap:round;stroke-linejoin:round;stroke-miterlimit:10;" d="
				M93.4,60.9h5.1c5.5,0,9.9,4.4,9.9,9.9v0c0,5.5-4.4,9.9-9.9,9.9h-5.1"/>
			
				<polygon style="fill:none;stroke:#243478;stroke-width:1.5;stroke-linecap:round;stroke-linejoin:round;stroke-miterlimit:10;" points="
				6.2,45.2 6.2,56.2 21.1,56.2 30.9,64.1 54.9,64.1 80.8,45.2 			"/>
			
				<polyline style="fill:none;stroke:#243478;stroke-width:1.5;stroke-linecap:round;stroke-linejoin:round;stroke-miterlimit:10;" points="
				82.8,64.1 89.7,64.1 112.4,45.2 79.9,45.2 			"/>
			
				<line style="fill:none;stroke:#243478;stroke-width:1.5;stroke-linecap:round;stroke-linejoin:round;stroke-miterlimit:10;" x1="54.9" y1="64.1" x2="63.2" y2="64.1"/>
			
				<circle style="fill:none;stroke:#243478;stroke-width:1.5;stroke-linecap:round;stroke-linejoin:round;stroke-miterlimit:10;" cx="70.4" cy="70.8" r="9.9"/>
			
				<circle style="fill:none;stroke:#E5EFFF;stroke-width:1.5;stroke-linecap:round;stroke-linejoin:round;stroke-miterlimit:10;" cx="70.4" cy="70.8" r="5.8"/>
			<path style="fill:none;stroke:#243478;stroke-width:1.5;stroke-linecap:round;stroke-linejoin:round;stroke-miterlimit:10;" d="
				M70.4,60.9h5.1c5.5,0,9.9,4.4,9.9,9.9v0c0,5.5-4.4,9.9-9.9,9.9h-5.1"/>
			
				<line style="fill:none;stroke:#E5EFFF;stroke-width:1.5;stroke-linecap:round;stroke-linejoin:round;stroke-miterlimit:10;" x1="25.3" y1="53.3" x2="29.3" y2="53.3"/>
			<path style="fill:none;stroke:#243478;stroke-width:1.5;stroke-linecap:round;stroke-linejoin:round;stroke-miterlimit:10;" d="
				M28.8,40.9v-0.7c0-2.4,1.9-4.3,4.3-4.3h0c2.4,0,4.3,1.9,4.3,4.3v0.7"/>
			<path style="fill:none;stroke:#243478;stroke-width:1.5;stroke-linecap:round;stroke-linejoin:round;stroke-miterlimit:10;" d="
				M42,35.9L42,35.9c1.8,0,3.3,1.1,3.9,2.6"/>
			
				<line style="fill:none;stroke:#243478;stroke-width:1.5;stroke-linecap:round;stroke-linejoin:round;stroke-miterlimit:10;" x1="33" y1="35.9" x2="41.9" y2="35.9"/>
			<path style="fill:none;stroke:#243478;stroke-width:1.5;stroke-linecap:round;stroke-linejoin:round;stroke-miterlimit:10;" d="
				M39.3,35.9h-4.8v-4.7c0-1.3,1.1-2.4,2.4-2.4h0c1.3,0,2.4,1.1,2.4,2.4V35.9z"/>
			<path style="fill:#243478;" d="M38.6,29.5C38.6,29.5,38.5,29.4,38.6,29.5c-0.3-0.2-0.8-0.5-1.4-0.6c-0.1,0-0.2,0-0.3,0
				c-0.5,0-0.9,0.1-1.3,0.4c0,0,0,0,0,0c0,0-0.1,0.1-0.1,0.1c-0.5,0.4-0.8,1.1-0.9,1.7c0,0.1,0,0.1,0,0.2v2
				C34.5,33.2,37.7,32.7,38.6,29.5z"/>
			<circle style="fill:#243478;" cx="35.4" cy="28.5" r="1.7"/>
			<path style="fill:none;stroke:#E5EFFF;stroke-width:1.5;stroke-linecap:round;stroke-linejoin:round;stroke-miterlimit:10;" d="
				M66.4,40.9v-7.7h-4.6c-7,0-13.6,2.8-18.6,7.7l0,0"/>
			
				<rect x="25.3" y="40.9" style="fill:none;stroke:#243478;stroke-width:1.5;stroke-linecap:round;stroke-linejoin:round;stroke-miterlimit:10;" width="51.9" height="4.3"/>
		</g>
	</g>
</g>
</svg>
